<svg width="84" height="24" viewBox="0 0 84 24" fill="none" xmlns="http://www.w3.org/2000/svg">
<path d="M48.4077 7.67176H45.4497V17.9728H48.4077V7.67176Z" fill="black"/>
<path d="M43.5437 11.8749C43.2251 11.2896 42.7688 10.7903 42.2189 10.4199C42.899 9.6488 43.2997 8.62488 43.2504 7.50363C43.1505 5.28137 41.2506 3.56473 39.0271 3.56473H32.8608V17.9716H39.9157C42.1949 17.9716 44.043 16.1247 44.043 13.8443C44.043 13.1314 43.8622 12.4614 43.5437 11.8749ZM39.4569 15.5268H35.8175V11.9912H39.4354C40.386 11.9912 41.1899 12.7458 41.1899 13.7596C41.1899 14.7608 40.3872 15.5268 39.4569 15.5268ZM38.6832 9.5464H35.8175V6.01075H38.6617C39.6123 6.01075 40.4163 6.76541 40.4163 7.7792C40.415 8.7791 39.6123 9.5464 38.6832 9.5464Z" fill="black"/>
<path d="M83.3992 3.99199H79.9963L77.3391 8.25324L74.682 3.99199H71.2778L75.6377 10.9824L71.2778 17.9728H74.682L77.3391 13.7116L79.9963 17.9728H83.3992L79.0406 10.9824L83.3992 3.99199Z" fill="black"/>
<path d="M58.9566 12.2427V17.9716H55.9999V11.7295C55.9999 10.8219 55.2503 10.0887 54.3351 10.1152C53.4528 10.1418 52.7714 10.9129 52.7714 11.7965V17.9703H49.8135V7.66923H52.7714V8.15969C53.4376 7.84494 54.1796 7.66923 54.9646 7.66923C55.3578 7.66923 55.7408 7.71347 56.1086 7.7969C57.7482 8.16981 58.9061 9.63362 58.9478 11.3136C58.9541 11.6157 58.9566 11.9279 58.9566 12.2427Z" fill="black"/>
<path d="M48.4077 3.56473H45.4497V6.5227H48.4077V3.56473Z" fill="black"/>
<path d="M70.4854 7.67176H65.3848C65.3684 7.67176 65.352 7.67049 65.3343 7.67049C62.4901 7.67049 60.1844 9.97746 60.1844 12.8217C60.1844 15.6532 62.4673 17.9488 65.29 17.9703C65.3027 17.9728 65.3178 17.9728 65.3343 17.9728C66.4315 17.9728 67.5275 18.2952 67.5275 19.2496C67.5275 20.2191 66.5352 21.042 65.3343 21.042C64.1233 21.042 63.1411 20.0598 63.1411 18.8488H60.1831C60.1831 21.693 62.4901 24 65.333 24C68.1785 24 70.4829 21.693 70.4829 18.8488C70.4842 18.8488 70.5398 17.3104 69.2352 16.1841C70.0152 15.2828 70.4842 14.1098 70.4842 12.8217C70.4842 11.8293 70.2035 10.9028 69.7169 10.1165H70.4854V7.67176ZM65.3343 15.0149C64.1233 15.0149 63.1411 14.0327 63.1411 12.8217C63.1411 11.6107 64.1233 10.6285 65.3343 10.6285C66.5453 10.6285 67.5275 11.6107 67.5275 12.8217C67.5275 14.0327 66.5453 15.0149 65.3343 15.0149Z" fill="black"/>
<path d="M28.0065 0C24.8425 0 21.7139 0.80017 18.9582 2.31455C17.4817 3.12609 16.119 4.13231 14.908 5.30665C14.6236 5.58222 14.3443 5.87043 14.0775 6.1637C13.1838 7.14842 12.3925 8.22796 11.7276 9.37322C11.4912 9.78405 11.2295 10.1848 10.9489 10.5678C10.9123 10.6183 10.8769 10.6677 10.8377 10.717C8.38787 13.9581 4.65754 15.8163 0.601074 15.8163V21.8043C3.76509 21.8043 6.89371 21.0041 9.64943 19.4897C11.1221 18.6807 12.4848 17.6732 13.6996 16.4976C13.984 16.2221 14.2634 15.9338 14.5313 15.6406C15.4251 14.6559 16.2138 13.5776 16.8788 12.4323L16.923 12.3577C17.148 11.9722 17.3958 11.5955 17.6574 11.2378C17.6941 11.1885 17.7307 11.1379 17.7699 11.0861C20.2185 7.8462 23.9501 5.98673 28.0065 5.98673V0Z" fill="#2A54FF"/>
<path opacity="0.3" d="M28.0065 0C24.8425 0 21.7139 0.80017 18.9582 2.31455C17.4817 3.12609 16.119 4.13231 14.908 5.30665C14.6236 5.58222 14.3443 5.87043 14.0775 6.1637C13.1838 7.14842 12.3925 8.22796 11.7276 9.37322C11.4912 9.78405 11.2295 10.1848 10.9489 10.5678C10.9123 10.6183 10.8769 10.6677 10.8377 10.717C8.38787 13.9581 4.65754 15.8163 0.601074 15.8163V21.8043C3.76509 21.8043 6.89371 21.0041 9.64943 19.4897C11.1221 18.6807 12.4848 17.6732 13.6996 16.4976C13.984 16.2221 14.2634 15.9338 14.5313 15.6406C15.4251 14.6559 16.2138 13.5776 16.8788 12.4323L16.923 12.3577C17.148 11.9722 17.3958 11.5955 17.6574 11.2378C17.6941 11.1885 17.7307 11.1379 17.7699 11.0861C20.2185 7.8462 23.9501 5.98673 28.0065 5.98673V0Z" fill="url(#paint0_radial_369_1438)"/>
<path d="M28.0065 15.8163C23.9501 15.8163 20.2185 13.9581 17.7687 10.717C17.732 10.6677 17.6941 10.6184 17.6574 10.5653C17.3781 10.186 17.1164 9.78405 16.88 9.37196C16.2151 8.22796 15.4238 7.14842 14.5301 6.1637C14.2634 5.87169 13.984 5.58348 13.6996 5.30791C12.4886 4.13231 11.1259 3.12609 9.64943 2.31581C6.89371 0.801431 3.76509 0.00126457 0.601074 0.00126457V5.98925C4.65754 5.98925 8.38913 7.84747 10.8389 11.0886C10.8769 11.1379 10.9135 11.1885 10.9502 11.2378C11.2131 11.5968 11.4609 11.9735 11.6833 12.3552L11.7301 12.4336C12.3938 13.5763 13.1838 14.6546 14.0775 15.6406C14.343 15.9326 14.6236 16.2208 14.908 16.4964C16.1216 17.672 17.4843 18.6794 18.9582 19.4885C21.7139 21.0028 24.8425 21.803 28.0065 21.803V15.8163Z" fill="#2A54FF"/>
<defs>
<radialGradient id="paint0_radial_369_1438" cx="0" cy="0" r="1" gradientUnits="userSpaceOnUse" gradientTransform="translate(14.305 10.9021) scale(9.59995)">
<stop/>
<stop offset="1" stop-opacity="0"/>
</radialGradient>
</defs>
</svg>
